HIERARCHY
ROOT root
{
	OFFSET	0	13.1	24.9
	CHANNELS 6  Xposition Yposition Zposition Xrotation Yrotation Zrotation
	JOINT spine_1
	{
		OFFSET	0	9.99999	0
		CHANNELS 3  Xrotation Yrotation Zrotation
		JOINT spine_2
		{
			OFFSET	0	112	-10
			CHANNELS 3  Xrotation Yrotation Zrotation
			JOINT spine_3
			{
				OFFSET	0	206.5	19.3
				CHANNELS 3  Xrotation Yrotation Zrotation
				JOINT spine_4
				{
					OFFSET	0	110.4	14.6
					CHANNELS 3  Xrotation Yrotation Zrotation
					JOINT neck_1
					{
						OFFSET	0	71.8	-50.3
						CHANNELS 3  Xrotation Yrotation Zrotation
						JOINT neck_2
						{
							OFFSET	0	86.2	-25.8
							CHANNELS 3  Xrotation Yrotation Zrotation
							JOINT head_ee
							{
								OFFSET	0	179.8	-8.7
								CHANNELS 3  Xrotation Yrotation Zrotation
								End Site
								{
									OFFSET	1	0	0
								}
							}
						}
					}
					JOINT left_clavicle
					{
						OFFSET	-43.2	22.4	-70.8
						CHANNELS 3  Xrotation Yrotation Zrotation
						JOINT left_shoulder
						{
							OFFSET	-93.9	-5.79999	48.7
							CHANNELS 3  Xrotation Yrotation Zrotation
							JOINT left_elbow
							{
								OFFSET	-291.4	-30.8	15.2
								CHANNELS 3  Xrotation Yrotation Zrotation
								JOINT left_lowarm_twist
								{
									OFFSET	-110.7	-3.89999	13.6
									CHANNELS 3  Xrotation Yrotation Zrotation
									JOINT left_hand
									{
										OFFSET	-110.7	-3.89999	13.6
										CHANNELS 3  Xrotation Yrotation Zrotation
										JOINT left_ee
										{
											OFFSET	-80.8	-5.10001	12.1
											CHANNELS 3  Xrotation Yrotation Zrotation
											End Site
											{
												OFFSET	1	0	0
											}
										}
									}
								}
							}
						}
					}
					JOINT right_clavicle
					{
						OFFSET	43.2	22.4	-70.8
						CHANNELS 3  Xrotation Yrotation Zrotation
						JOINT right_shoulder
						{
							OFFSET	93.9	-5.79999	48.7
							CHANNELS 3  Xrotation Yrotation Zrotation
							JOINT right_elbow
							{
								OFFSET	291.4	-30.8	15.2
								CHANNELS 3  Xrotation Yrotation Zrotation
								JOINT right_lowarm_twist
								{
									OFFSET	110.7	-3.89999	13.6
									CHANNELS 3  Xrotation Yrotation Zrotation
									JOINT right_hand
									{
										OFFSET	110.7	-3.89999	13.6
										CHANNELS 3  Xrotation Yrotation Zrotation
										JOINT right_ee
										{
											OFFSET	80.8	-5.10001	12.1
											CHANNELS 3  Xrotation Yrotation Zrotation
											End Site
											{
												OFFSET	1	0	0
											}
										}
									}
								}
							}
						}
					}
				}
			}
		}
	}
	JOINT left_hip
	{
		OFFSET	-82.8	-127.5	0.300001
		CHANNELS 3  Xrotation Yrotation Zrotation
		JOINT left_knee
		{
			OFFSET	-28.2	-396.7	2.2
			CHANNELS 3  Xrotation Yrotation Zrotation
			JOINT left_ankle
			{
				OFFSET	-11.7	-411.3	35.4
				CHANNELS 3  Xrotation Yrotation Zrotation
				JOINT left_toes
				{
					OFFSET	0	-60	-88.6
					CHANNELS 3  Xrotation Yrotation Zrotation
					JOINT left_foot_ee
					{
						OFFSET	-22.5	-16.5	-42.2
						CHANNELS 3  Xrotation Yrotation Zrotation
						End Site
						{
							OFFSET	1	0	0
						}
					}
				}
			}
		}
	}
	JOINT right_hip
	{
		OFFSET	82.8	-127.5	0.300001
		CHANNELS 3  Xrotation Yrotation Zrotation
		JOINT right_knee
		{
			OFFSET	28.2	-396.7	2.2
			CHANNELS 3  Xrotation Yrotation Zrotation
			JOINT right_ankle
			{
				OFFSET	11.7	-411.3	35.4
				CHANNELS 3  Xrotation Yrotation Zrotation
				JOINT right_toes
				{
					OFFSET	0	-60	-88.6
					CHANNELS 3  Xrotation Yrotation Zrotation
					JOINT right_foot_ee
					{
						OFFSET	22.5	-16.5	-42.2
						CHANNELS 3  Xrotation Yrotation Zrotation
						End Site
						{
							OFFSET	1	0	0
						}
					}
				}
			}
		}
	}
}
MOTION
Frames: 9
Frame Time: 0.02
1187.05117001 753.672 -1777.34294369 2.75331297349 39.0536227796 -6.60965322492 -1.64707 0.631887 1.14027 -1.64652 0.558053 1.17817 -1.63407 0.261744 1.27709 -1.63605 0.460137 1.21974 -11.4174 9.05982 1.71129 -11.5335 16.036 4.13783 -0.0 0.0 -0.0 10.1243 0.0813404 19.9076 -33.8298 -12.6005 48.7892 1.31372 -33.0536 0.389826 12.1257 0.266937 -1.52308 -0.0910834 11.8282 4.3011 -0.0 0.0 -0.0 9.70905 7.84169 -19.2179 -14.2297 24.6002 -49.3104 0.898953 24.0038 -0.191113 35.018 0.115805 4.40297 0.780249 -21.889 -13.4351 0.0 0.0 0.0 28.9129 -13.2958 8.62238 -71.2964 -3.53497 9.64326 36.189 23.6099 -4.7476 -32.9042 0.0 0.0 -0.0 0.0 -0.0 6.13726 21.1879 -1.81817 -19.0446 -0.305783 -2.89313 29.2542 7.88403 3.92542 1.24048 -0.0 -0.0 0.0 0.0 0.0 
1187.340464 754.649 -1793.41541334 2.51993396057 39.3195387079 -7.39825081658 -1.24758 0.314488 1.41304 -1.2465 0.223945 1.43018 -1.23987 -0.112902 1.4432 -1.24275 0.116417 1.44292 -9.31306 9.96048 4.82124 -9.3137 15.4057 7.09461 -0.0 0.0 -0.0 9.77761 -0.313696 19.2105 -33.9572 -12.917 49.9392 1.12642 -29.1604 0.293003 13.2156 0.275029 -1.66205 -0.0132676 12.5493 5.08469 -0.0 0.0 -0.0 10.3053 8.97232 -20.5101 -12.8407 25.8918 -48.3913 0.913866 24.356 -0.197222 34.4458 0.0923193 4.3337 0.470703 -22.3477 -11.7376 0.0 0.0 0.0 32.6111 -18.2207 9.12774 -67.6261 -3.07723 9.309 36.5481 25.0025 -4.82406 -34.1715 0.0 0.0 -0.0 0.0 -0.0 5.81285 24.1902 -1.75659 -21.4652 -0.27535 -3.26326 30.3693 6.29791 4.02057 1.74866 -0.0 -0.0 0.0 0.0 0.0 
1187.68001375 754.649 -1793.61227681 2.51773620878 39.258475734 -7.3947801295 -1.24758 0.314488 1.41304 -1.2465 0.223945 1.43018 -1.23987 -0.112902 1.4432 -1.24275 0.116417 1.44292 -9.31306 9.96048 4.82124 -9.3137 15.4057 7.09461 -0.0 0.0 -0.0 9.77761 -0.313696 19.2105 -33.9572 -12.917 49.9392 1.12642 -29.1604 0.293003 13.2156 0.275029 -1.66205 -0.0132676 12.5493 5.08469 -0.0 0.0 -0.0 10.3053 8.97232 -20.5101 -12.8407 25.8918 -48.3913 0.913866 24.356 -0.197222 34.4458 0.0923193 4.3337 0.470703 -22.3477 -11.7376 0.0 0.0 0.0 32.6111 -18.2207 9.12774 -67.6261 -3.07723 9.309 36.5481 25.0025 -4.82406 -34.1715 0.0 0.0 -0.0 0.0 -0.0 5.81285 24.1902 -1.75659 -21.4652 -0.27535 -3.26326 30.3693 6.29791 4.02057 1.74866 -0.0 -0.0 0.0 0.0 0.0 
1159.10622681 754.626 -1796.58594559 1.96657179715 42.5331072277 -6.78548469388 -1.36875 0.0615356 1.54565 -1.36742 -0.0369307 1.54643 -1.36742 -0.397014 1.49507 -1.3705 -0.155943 1.53899 -8.96731 9.89968 2.8204 -9.00859 16.6212 5.08768 -0.0 0.0 -0.0 9.95297 -0.297919 19.5719 -34.4736 -13.1562 50.9355 0.991918 -26.1674 0.230535 14.3484 0.280637 -1.80662 0.577559 19.1122 11.2488 -0.0 0.0 -0.0 10.2389 8.55303 -20.3661 -10.3427 24.599 -47.9215 1.16824 30.0574 -0.313666 35.946 0.155364 4.51482 0.460245 -17.1336 -9.81185 0.0 0.0 0.0 33.9555 -15.1593 6.00336 -62.8215 -2.51224 8.82876 36.4116 22.3576 -4.73777 -35.0304 0.0 0.0 -0.0 0.0 -0.0 5.49948 20.3704 -1.62067 -21.7717 -0.27038 -3.31003 30.3533 6.32881 4.01933 1.52984 -0.0 -0.0 0.0 0.0 0.0 
1143.23456947 754.753 -1800.9093538 1.61326000297 44.8551601431 -5.67050248167 -1.32982 -0.108831 1.45847 -1.32866 -0.201407 1.4486 -1.33307 -0.533315 1.36184 -1.33552 -0.311568 1.42896 -8.39345 9.50223 3.58084 -8.39942 15.2727 5.66475 -0.0 0.0 -0.0 10.0154 -0.146001 19.6939 -34.9175 -12.8661 52.0047 0.89738 -23.9665 0.190474 13.9543 0.27901 -1.75631 -0.0278252 16.177 6.42974 -0.0 0.0 -0.0 10.2867 9.90605 -20.463 -9.79611 27.5905 -46.4187 1.10205 28.6303 -0.281226 34.1359 0.0798886 4.29609 0.143059 -21.1995 -9.37652 0.0 0.0 0.0 36.6888 -14.98 4.37172 -59.3065 -2.12556 8.44859 32.7487 20.9515 -4.32337 -36.8139 0.0 0.0 -0.0 0.0 -0.0 3.82336 23.5806 -2.44678 -19.2849 -0.303462 -2.92992 31.4978 5.37471 4.12621 2.21016 -0.0 -0.0 0.0 0.0 0.0 
1104.33877841 750.461 -1810.96082956 0.220921066698 46.0407655067 -3.60580263126 -1.4606 -0.252808 1.58276 -1.45928 -0.352998 1.56347 -1.46825 -0.710949 1.43655 -1.47082 -0.475179 1.53078 -8.39267 9.33386 2.60664 -8.41531 15.6387 4.67033 -0.0 0.0 -0.0 10.0521 -0.304712 19.7775 -36.3292 -13.1294 54.5462 0.798283 -21.576 0.15211 12.6611 0.271243 -1.59133 0.705186 17.3557 11.4129 -0.0 0.0 -0.0 10.0892 8.26852 -20.0406 -5.93012 28.9067 -45.8289 1.44319 35.5593 -0.462814 34.7524 0.104816 4.37084 0.0596241 -13.9021 -6.08152 0.0 0.0 0.0 39.1674 -11.0692 1.16224 -53.1569 -1.50808 7.72978 32.0131 18.7299 -4.20345 -37.8849 0.0 0.0 -0.0 0.0 -0.0 3.69998 23.5645 -3.02906 -17.1888 -0.318512 -2.60868 32.7476 3.06494 4.2251 2.44274 -0.0 -0.0 0.0 0.0 0.0 
1084.90516641 749.3 -1812.53191018 -0.605915415286 48.093251561 -2.68774650073 -1.14344 -0.337294 1.57907 -1.14216 -0.437079 1.55442 -1.15355 -0.782814 1.41228 -1.15592 -0.549974 1.51816 -7.81137 9.97899 3.27322 -7.81262 16.3041 5.39618 -0.0 0.0 -0.0 10.1268 -0.95158 19.9625 -37.2314 -13.0867 55.6562 0.739292 -20.1139 0.131117 14.3572 0.280669 -1.80774 0.108813 17.7854 7.89138 -0.0 0.0 -0.0 10.2894 10.9913 -20.4545 -4.3356 29.2392 -45.8795 1.39727 34.6878 -0.436395 34.0699 0.0772683 4.28807 0.122294 -18.7411 -8.33576 0.0 0.0 0.0 40.1068 -9.86279 0.359736 -50.8252 -1.29479 7.44078 29.7815 18.2651 -3.95201 -38.3792 0.0 0.0 -0.0 0.0 -0.0 3.62573 23.1133 -3.26316 -16.2877 -0.321368 -2.47045 32.3525 4.3704 4.20087 2.73462 -0.0 -0.0 0.0 0.0 0.0 
1059.47163486 742.559 -1814.86254069 -1.10758002871 48.3725772017 -1.55589121753 -1.25999 -0.240729 1.30519 -1.2591 -0.323287 1.28723 -1.26598 -0.61288 1.17724 -1.26767 -0.419282 1.25924 -7.90332 9.90709 3.08598 -7.9099 16.3144 5.20774 -0.0 0.0 -0.0 10.1265 -1.52622 19.9867 -37.5033 -13.7484 57.3207 0.704209 -19.2311 0.119306 14.5397 0.281302 -1.83105 0.256921 18.3097 8.99506 -0.0 0.0 -0.0 10.4396 11.1386 -20.7836 -1.78297 29.7046 -45.5222 1.51812 36.9419 -0.507126 34.064 0.0770322 4.28735 0.150374 -17.7364 -8.12738 0.0 0.0 0.0 41.6201 -8.67325 -1.48658 -46.4428 -0.926667 6.87554 28.9406 18.0191 -3.85431 -38.6137 0.0 0.0 -0.0 0.0 -0.0 2.68724 23.061 -3.9747 -15.4985 -0.322084 -2.34937 32.4568 4.22323 4.20963 2.90609 -0.0 -0.0 0.0 0.0 0.0 
1055.89433419 742.559 -1811.53515693 -1.12099260122 48.9788978639 -1.53803148374 -1.25999 -0.240729 1.30519 -1.2591 -0.323287 1.28723 -1.26598 -0.61288 1.17724 -1.26767 -0.419282 1.25924 -7.90332 9.90709 3.08598 -7.9099 16.3144 5.20774 -0.0 0.0 -0.0 10.1265 -1.52622 19.9867 -37.5033 -13.7484 57.3207 0.704209 -19.2311 0.119306 14.5397 0.281302 -1.83105 0.256921 18.3097 8.99506 -0.0 0.0 -0.0 10.4396 11.1386 -20.7836 -1.78297 29.7046 -45.5222 1.51812 36.9419 -0.507126 34.064 0.0770322 4.28735 0.150374 -17.7364 -8.12738 0.0 0.0 0.0 41.6201 -8.67325 -1.48658 -46.4428 -0.926667 6.87554 28.9406 18.0191 -3.85431 -38.6137 0.0 0.0 -0.0 0.0 -0.0 2.68724 23.061 -3.9747 -15.4985 -0.322084 -2.34937 32.4568 4.22323 4.20963 2.90609 -0.0 -0.0 0.0 0.0 0.0 
